<svg id="visual" viewBox="0 0 1920 1080" width="1920" height="1080" xmlns="http://www.w3.org/2000/svg" xmlns:xlink="http://www.w3.org/1999/xlink" version="1.1"><rect x="0" y="0" width="1920" height="1080" fill="#feffff"></rect><defs><linearGradient id="grad1_0" x1="43.8%" y1="0%" x2="100%" y2="100%"><stop offset="14.444444444444446%" stop-color="#00196d" stop-opacity="1"></stop><stop offset="85.55555555555554%" stop-color="#00196d" stop-opacity="1"></stop></linearGradient></defs><defs><linearGradient id="grad1_1" x1="43.8%" y1="0%" x2="100%" y2="100%"><stop offset="14.444444444444446%" stop-color="#00196d" stop-opacity="1"></stop><stop offset="85.55555555555554%" stop-color="#00569a" stop-opacity="1"></stop></linearGradient></defs><defs><linearGradient id="grad1_2" x1="43.8%" y1="0%" x2="100%" y2="100%"><stop offset="14.444444444444446%" stop-color="#4b91b8" stop-opacity="1"></stop><stop offset="85.55555555555554%" stop-color="#00569a" stop-opacity="1"></stop></linearGradient></defs><defs><linearGradient id="grad1_3" x1="43.8%" y1="0%" x2="100%" y2="100%"><stop offset="14.444444444444446%" stop-color="#4b91b8" stop-opacity="1"></stop><stop offset="85.55555555555554%" stop-color="#a1c9d5" stop-opacity="1"></stop></linearGradient></defs><defs><linearGradient id="grad1_4" x1="43.8%" y1="0%" x2="100%" y2="100%"><stop offset="14.444444444444446%" stop-color="#feffff" stop-opacity="1"></stop><stop offset="85.55555555555554%" stop-color="#a1c9d5" stop-opacity="1"></stop></linearGradient></defs><defs><linearGradient id="grad2_0" x1="0%" y1="0%" x2="56.3%" y2="100%"><stop offset="14.444444444444446%" stop-color="#00196d" stop-opacity="1"></stop><stop offset="85.55555555555554%" stop-color="#00196d" stop-opacity="1"></stop></linearGradient></defs><defs><linearGradient id="grad2_1" x1="0%" y1="0%" x2="56.3%" y2="100%"><stop offset="14.444444444444446%" stop-color="#00569a" stop-opacity="1"></stop><stop offset="85.55555555555554%" stop-color="#00196d" stop-opacity="1"></stop></linearGradient></defs><defs><linearGradient id="grad2_2" x1="0%" y1="0%" x2="56.3%" y2="100%"><stop offset="14.444444444444446%" stop-color="#00569a" stop-opacity="1"></stop><stop offset="85.55555555555554%" stop-color="#4b91b8" stop-opacity="1"></stop></linearGradient></defs><defs><linearGradient id="grad2_3" x1="0%" y1="0%" x2="56.3%" y2="100%"><stop offset="14.444444444444446%" stop-color="#a1c9d5" stop-opacity="1"></stop><stop offset="85.55555555555554%" stop-color="#4b91b8" stop-opacity="1"></stop></linearGradient></defs><defs><linearGradient id="grad2_4" x1="0%" y1="0%" x2="56.3%" y2="100%"><stop offset="14.444444444444446%" stop-color="#a1c9d5" stop-opacity="1"></stop><stop offset="85.55555555555554%" stop-color="#feffff" stop-opacity="1"></stop></linearGradient></defs><g transform="translate(1920, 0)"><path d="M0 864C-99 827.1 -198 790.2 -313.8 757.6C-429.6 725 -562.1 696.7 -610.9 610.9C-659.8 525.2 -625 382 -653.2 270.6C-681.4 159.2 -772.7 79.6 -864 0L0 0Z" fill="#cfe4e7"></path><path d="M0 691.2C-79.2 661.7 -158.4 632.1 -251 606.1C-343.7 580 -449.7 557.4 -488.8 488.8C-527.8 420.1 -500 305.6 -522.5 216.4C-545.1 127.3 -618.2 63.7 -691.2 0L0 0Z" fill="#75adc6"></path><path d="M0 518.4C-59.4 496.3 -118.8 474.1 -188.3 454.5C-257.7 435 -337.3 418 -366.6 366.6C-395.9 315.1 -375 229.2 -391.9 162.3C-408.8 95.5 -463.6 47.7 -518.4 0L0 0Z" fill="#2074aa"></path><path d="M0 345.6C-39.6 330.8 -79.2 316.1 -125.5 303C-171.8 290 -224.8 278.7 -244.4 244.4C-263.9 210.1 -250 152.8 -261.3 108.2C-272.6 63.7 -309.1 31.8 -345.6 0L0 0Z" fill="#003986"></path><path d="M0 172.8C-19.8 165.4 -39.6 158 -62.8 151.5C-85.9 145 -112.4 139.3 -122.2 122.2C-132 105 -125 76.4 -130.6 54.1C-136.3 31.8 -154.5 15.9 -172.8 0L0 0Z" fill="#00196d"></path></g><g transform="translate(0, 1080)"><path d="M0 -864C114.1 -853.3 228.1 -842.6 330.6 -798.2C433.1 -753.8 524 -675.7 587.6 -587.6C651.2 -499.5 687.4 -401.5 728.9 -301.9C770.5 -202.3 817.2 -101.2 864 0L0 0Z" fill="#cfe4e7"></path><path d="M0 -691.2C91.3 -682.7 182.5 -674.1 264.5 -638.6C346.5 -603.1 419.2 -540.5 470.1 -470.1C520.9 -399.6 549.9 -321.2 583.2 -241.5C616.4 -161.9 653.8 -80.9 691.2 0L0 0Z" fill="#75adc6"></path><path d="M0 -518.4C68.4 -512 136.9 -505.6 198.4 -478.9C259.9 -452.3 314.4 -405.4 352.6 -352.6C390.7 -299.7 412.5 -240.9 437.4 -181.2C462.3 -121.4 490.3 -60.7 518.4 0L0 0Z" fill="#2074aa"></path><path d="M0 -345.6C45.6 -341.3 91.3 -337.1 132.3 -319.3C173.3 -301.5 209.6 -270.3 235 -235C260.5 -199.8 275 -160.6 291.6 -120.8C308.2 -80.9 326.9 -40.5 345.6 0L0 0Z" fill="#003986"></path><path d="M0 -172.8C22.8 -170.7 45.6 -168.5 66.1 -159.6C86.6 -150.8 104.8 -135.1 117.5 -117.5C130.2 -99.9 137.5 -80.3 145.8 -60.4C154.1 -40.5 163.4 -20.2 172.8 0L0 0Z" fill="#00196d"></path></g></svg>